# xmcd
#
# Track frame offsets: 
#        150
#        15087
#        34479
#        50244
#        66945
#        82080
#        98232
#        113466
#        127638
#        137751
#        152220
#
# Disc length: 2176 seconds
#
# Revision: 5
# Processed by: cddbd v1.5.2PL0 Copyright (c) Steve Scherf et al.
# Submitted via: ExactAudioCopy v1.0b1
#
DISCID=8b087e0b
DTITLE=Chris LeDoux - Radio and Rodeo Hits
DYEAR=1990
DGENRE=Country
TTITLE0=Cowboy Songs
TTITLE1=Seventeen
TTITLE2=Hooked On An 8 Second Ride
TTITLE3=Running Through The Rain
TTITLE4=It Ain't The Years, It's The Miles
TTITLE5=Blue Bonnet Blues
TTITLE6=Wild And Wooly
TTITLE7=Hard Times
TTITLE8=Just Enough Money, Honey
TTITLE9=Son's Of The Pioneers
TTITLE10=So You Want To Be A Cowboy
EXTD=
EXTT0=
EXTT1=
EXTT2=
EXTT3=
EXTT4=
EXTT5=
EXTT6=
EXTT7=
EXTT8=
EXTT9=
EXTT10=
PLAYORDER=
